PathFileType	4	(X/Y/Z)	C:/Users/opensim2020/Desktop/walking_exp_matlab/subject03_walking04_straight_01.trc																																																																																																																																																							
DataRate	CameraRate	NumFrames	NumMarkers	Units	OrigDataRate	OrigDataStartFrame	OrigNumFrames																																																																																																																																																			
100	100	4	51	mm	100	934	265																																																																																																																																																			
Frame#	Time	LFHD			RFHD			LBHD			RBHD			C7			T10			CLAV			STRN			RBAK			LSHO			LUPA			LELB			LFRM			LWRA			LWRB			LFIN			RSHO			RUPA			RELB			RFRM			RWRA			RWRB			RFIN			LASI			RASI			LPSI			RPSI			LTHI			LKNE			LTIB			LANK			LHEE			LTOE			RTHI			RKNE			RTIB			RANK			RHEE			RTOE			*39			*40			*41			*42			*43			*44			*45			*46			*47			*48			*49			*50		
		X1	Y1	Z1	X2	Y2	Z2	X3	Y3	Z3	X4	Y4	Z4	X5	Y5	Z5	X6	Y6	Z6	X7	Y7	Z7	X8	Y8	Z8	X9	Y9	Z9	X10	Y10	Z10	X11	Y11	Z11	X12	Y12	Z12	X13	Y13	Z13	X14	Y14	Z14	X15	Y15	Z15	X16	Y16	Z16	X17	Y17	Z17	X18	Y18	Z18	X19	Y19	Z19	X20	Y20	Z20	X21	Y21	Z21	X22	Y22	Z22	X23	Y23	Z23	X24	Y24	Z24	X25	Y25	Z25	X26	Y26	Z26	X27	Y27	Z27	X28	Y28	Z28	X29	Y29	Z29	X30	Y30	Z30	X31	Y31	Z31	X32	Y32	Z32	X33	Y33	Z33	X34	Y34	Z34	X35	Y35	Z35	X36	Y36	Z36	X37	Y37	Z37	X38	Y38	Z38	X39	Y39	Z39	X40	Y40	Z40	X41	Y41	Z41	X42	Y42	Z42	X43	Y43	Z43	X44	Y44	Z44	X45	Y45	Z45	X46	Y46	Z46	X47	Y47	Z47	X48	Y48	Z48	X49	Y49	Z49	X50	Y50	Z50	X51	Y51	Z51
																																																																																																																																																										
199	1.98	480.14746	1621.10083	-1274.58984	451.30316	1630.0658	-1144.60803	356.27484	1569.44739	-1294.39587	333.07352	1578.54944	-1165.85986	322.75848	1416.80627	-1232.48621	288.63422	1103.26355	-1228.55884	446.17551	1343.74805	-1215.07556	489.36935	1177.6106	-1212.36548	262.71921	1244.00671	-1134.82532	419.21365	1376.79944	-1376.48962	406.224	1177.75073	-1447.14539	404.32425	1054.56665	-1459.15015	420.86273	924.51056	-1456.59033	426.87134	805.82513	-1424.71631	410.26764	812.53741	-1478.49695	413.14014	727.85681	-1466.00525	385.20645	1370.10095	-1062.06641	402.4682	1147.44617	-992.69763	429.04163	1037.22876	-982.77667	464.44867	904.89978	-984.37842	510.59	816.43158	-1022.09247	478.36005	805.85669	-979.64679	509.28683	738.10962	-990.58386	467.21274	943.22345	-1328.52905	441.30942	933.38843	-1092.20349	300.43423	966.60492	-1296.38123	286.52948	963.78931	-1147.37048	426.91498	643.07617	-1376.79956	443.97943	465.98386	-1333.96802	409.97379	273.95444	-1339.24878	408.29282	63.9202	-1299.2157	368.01105	29.05713	-1265.59558	562.07617	29.58587	-1273.27368	406.978	632.89148	-1055.24646	447.35233	457.0242	-1075.60925	302.13004	335.11066	-1079.61072	137.35718	198.99159	-1128.37036	89.07449	208.96394	-1185.65491	193.68721	68.15208	-1137.31677	385.10547	1680.26843	-1244.54346	NaN	NaN	NaN	NaN	NaN	NaN	NaN	NaN	NaN	NaN	NaN	NaN	NaN	NaN	NaN	NaN	NaN	NaN	NaN	NaN	NaN	NaN	NaN	NaN	NaN	NaN	NaN	NaN	NaN	NaN	NaN	NaN	NaN
200	1.99	489.80334	1621.39282	-1274.08276	460.69183	1630.26208	-1144.07971	365.85223	1570.20435	-1294.25635	342.39398	1579.07751	-1165.7384	331.88876	1417.26062	-1232.72913	297.63199	1103.7146	-1229.41602	455.15857	1344.1936	-1214.93469	498.28867	1178.073	-1212.41772	271.19879	1244.24878	-1136.01929	428.88818	1377.10291	-1376.47058	419.19421	1178.10693	-1447.38989	419.49252	1055.01257	-1459.90295	437.9841	925.23438	-1457.24634	446.65002	807.14825	-1426.48779	429.75754	813.10425	-1479.52124	434.18436	728.30707	-1467.43445	393.26443	1370.10986	-1061.92822	409.11298	1147.21289	-992.8963	435.00638	1036.75745	-982.7666	468.61572	903.90527	-983.82703	513.77515	814.67059	-1020.87744	480.98557	804.63263	-978.7226	511.06589	736.49109	-989.36273	476.00934	943.53253	-1329.47534	450.4903	934.44409	-1093.01099	309.47318	966.89929	-1296.97253	295.28094	964.40546	-1147.91858	434.50244	643.14063	-1376.12598	449.30856	465.87225	-1333.65552	413.01312	274.03101	-1339.0321	408.60336	64.05563	-1298.89429	368.1008	29.11677	-1265.43384	562.21826	29.74729	-1273.25391	421.55627	634.17706	-1055.62683	465.8331	459.34821	-1075.83508	322.08862	336.12177	-1080.25085	159.06592	197.94312	-1129.20056	110.15524	206.46796	-1186.30457	219.2608	68.84805	-1137.31384	394.59338	1678.78882	-1247.53064	NaN	NaN	NaN	NaN	NaN	NaN	NaN	NaN	NaN	NaN	NaN	NaN	NaN	NaN	NaN	NaN	NaN	NaN	NaN	NaN	NaN	NaN	NaN	NaN	NaN	NaN	NaN	NaN	NaN	NaN	NaN	NaN	NaN
201	2	499.46683	1621.64722	-1273.41577	470.0881	1630.33069	-1143.52161	375.37335	1570.84509	-1294.02441	351.61011	1579.58325	-1165.55884	340.9559	1417.72168	-1233.10974	306.55933	1104.19446	-1230.31689	464.05344	1344.57092	-1214.78198	507.15295	1178.45154	-1212.48706	279.61771	1244.53064	-1137.08752	438.45062	1377.47327	-1376.40601	432.13046	1178.62952	-1447.58179	434.75696	1055.66284	-1460.50256	455.2988	926.22058	-1457.77686	465.32236	808.3656	-1427.03333	449.41623	813.97882	-1480.36047	456.40948	729.58917	-1468.7019	401.15533	1370.16418	-1061.90991	415.67847	1147.02161	-993.0188	440.88196	1036.37842	-982.66278	472.77377	903.0788	-983.27167	516.83508	813.08044	-1019.62219	483.67691	803.64893	-977.71051	512.78424	735.047	-987.83203	484.78152	943.84271	-1330.41028	459.76334	935.69635	-1093.974	318.43262	967.09943	-1297.50183	304.38461	965.01794	-1148.48816	442.08719	643.06042	-1375.56506	454.68417	465.69162	-1333.2605	416.08963	274.10437	-1338.84778	408.98138	64.26919	-1298.54358	367.67999	29.55283	-1265.72864	562.21454	29.64428	-1273.10986	436.30579	635.24982	-1056.078	483.88428	461.70038	-1076.18994	342.31058	336.53033	-1081.11072	181.58247	195.69679	-1129.94629	132.03305	202.69084	-1186.90662	245.24799	68.38702	-1138.5083	404.80902	1681.24146	-1243.71265	NaN	NaN	NaN	NaN	NaN	NaN	NaN	NaN	NaN	NaN	NaN	NaN	NaN	NaN	NaN	NaN	NaN	NaN	NaN	NaN	NaN	NaN	NaN	NaN	NaN	NaN	NaN	NaN	NaN	NaN	NaN	NaN	NaN
202	2.01	509.14395	1621.81763	-1272.67859	479.45929	1630.28528	-1142.84619	384.93408	1571.4917	-1293.77209	360.83078	1580.01367	-1165.34644	349.90982	1418.07666	-1233.41638	315.38913	1104.57715	-1231.03711	472.90244	1344.84302	-1214.61121	515.90009	1178.75989	-1212.599	288.00583	1244.76672	-1138.07434	447.95663	1377.97632	-1376.30249	444.97937	1179.36499	-1447.75098	450.03586	1056.62952	-1460.97339	472.94183	927.80609	-1458.2478	484.22714	809.9007	-1427.53821	469.3866	815.45551	-1481.1886	478.30911	731.01624	-1469.53796	409.13663	1370.28479	-1061.9541	422.02121	1146.90149	-993.06396	446.69574	1036.11133	-982.53149	476.8277	902.39594	-982.59033	519.97119	811.69952	-1018.43091	486.48157	802.86383	-976.62079	514.80176	733.85339	-986.36151	493.62442	944.14484	-1331.64636	469.27982	937.09418	-1094.9906	327.35757	967.21997	-1297.89563	313.62817	965.46783	-1149.0249	449.84839	642.91711	-1375.16455	460.00864	465.41467	-1332.99268	419.10886	274.1384	-1338.76282	409.23257	64.46927	-1298.34595	367.93051	29.40003	-1265.42346	562.28717	29.50683	-1272.98523	451.05463	636.42322	-1056.40637	501.71619	464.11017	-1076.62683	362.63266	336.22479	-1082.03113	204.61079	192.27098	-1130.7865	154.52313	197.75743	-1187.58984	272.39197	67.35742	-1139.56409	414.34769	1679.625	-1243.82751	NaN	NaN	NaN	NaN	NaN	NaN	NaN	NaN	NaN	NaN	NaN	NaN	NaN	NaN	NaN	NaN	NaN	NaN	NaN	NaN	NaN	NaN	NaN	NaN	NaN	NaN	NaN	NaN	NaN	NaN	NaN	NaN	NaN
